<?xml version="1.0" standalone="no"?>
<!DOCTYPE svg PUBLIC "-//W3C//DTD SVG 20010904//EN"
 "http://www.w3.org/TR/2001/REC-SVG-20010904/DTD/svg10.dtd">
<svg version="1.0" xmlns="http://www.w3.org/2000/svg"
 width="500.000000pt" height="500.000000pt" viewBox="0 0 500.000000 500.000000"
 preserveAspectRatio="xMidYMid meet">

<g transform="translate(0.000000,500.000000) scale(0.100000,-0.100000)"
fill="#000000" stroke="none">
<path d="M2986 3673 c-4 -12 -27 -26 -59 -37 -28 -10 -62 -25 -74 -33 -13 -7
-23 -11 -23 -8 0 3 -10 0 -22 -7 -13 -7 -25 -13 -28 -14 -12 -3 -69 -25 -120
-47 -19 -9 -82 -34 -140 -57 -58 -23 -111 -46 -117 -52 -7 -6 -13 -7 -13 -4 0
4 -10 1 -22 -6 -13 -7 -25 -13 -28 -14 -12 -3 -69 -25 -120 -47 -19 -9 -71
-30 -115 -47 -44 -17 -86 -36 -92 -42 -7 -6 -13 -7 -13 -4 0 4 -10 1 -22 -6
-13 -7 -25 -13 -28 -14 -12 -2 -68 -25 -120 -47 -156 -68 -209 -85 -212 -69
-2 9 -27 -66 -56 -167 -50 -172 -52 -184 -37 -207 l15 -24 589 0 c547 0 589 1
603 18 19 21 274 940 264 950 -2 2 -7 -5 -10 -15z"/>
<path d="M3071 3382 c-15 -12 -43 -97 -101 -303 -44 -157 -80 -298 -80 -313 0
-49 32 -54 356 -55 266 -2 293 0 313 16 17 14 40 82 101 303 44 157 80 297 80
311 0 14 -8 33 -19 43 -16 15 -51 16 -324 16 -273 -1 -308 -3 -326 -18z"/>
<path d="M1465 2520 c-12 -4 -26 -14 -31 -21 -19 -24 -175 -592 -170 -614 3
-12 17 -27 31 -33 34 -15 607 -17 635 -2 21 11 26 24 125 380 71 253 73 270
19 290 -31 12 -580 12 -609 0z"/>
<path d="M2290 2517 c-30 -15 -17 24 -199 -621 -78 -274 -141 -512 -141 -527
0 -58 -10 -57 627 -55 500 1 585 4 597 16 13 14 326 1109 326 1143 0 8 -12 25
-26 36 -26 21 -35 21 -593 21 -435 0 -572 -3 -591 -13z"/>
</g>
</svg>
